Music_EyesOfFlame:
	musicheader 3, 1, Music_EyesOfFlame_Ch1
	musicheader 1, 2, Music_EyesOfFlame_Ch2
	musicheader 1, 3, Music_EyesOfFlame_Ch3

Music_EyesOfFlame_Ch1:
	tempo $68
	volume $77
	stereopanning $77
Music_EyesOfFlame_Ch1_loop:
	dutycycle 2
	vibrato $00, $13
	slidepitchto 1, 7, C_
	octave 2
	notetype $C, $83
	note B_, 4
	note __, 4
	slidepitchto 1, 7, C_
	note B_, 2
	slidepitchto 1, 7, C_
	note B_, 4
	note __, 4
	slidepitchto 1, 7, C_
	note B_, 4
	note __, 2
	slidepitchto 1, 7, C_
	note B_, 2
	slidepitchto 1, 7, C_
	note B_, 3
	note __, 5
	slidepitchto 1, 7, C_
	note B_, 4
	note __, 2
	slidepitchto 1, 7, C_
	note B_, 2
	slidepitchto 1, 7, C_
	note B_, 4
	note __, 2
	slidepitchto 1, 7, C_
	note B_, 4
	note __, 4
	slidepitchto 1, 7, C_
	note B_, 2
	slidepitchto 1, 7, C_
	note B_, 4
	note __, 2
	slidepitchto 1, 7, C_
	note B_, 4
	note __, 4
	slidepitchto 1, 7, C_
	note B_, 2
	slidepitchto 1, 7, C_
	note B_, 4
	note __, 4
	slidepitchto 1, 7, C_
	note B_, 4
	note __, 2
	slidepitchto 1, 7, C_
	note B_, 2
	slidepitchto 1, 7, C_
	note B_, 3
	note __, 5
	slidepitchto 1, 7, C_
	note B_, 4
	note __, 2
	slidepitchto 1, 7, C_
	note B_, 2
	slidepitchto 1, 7, C_
	note B_, 4
	note __, 2
	slidepitchto 1, 7, C_
	note B_, 4
	note __, 4
	slidepitchto 1, 7, C_
	note B_, 2
	slidepitchto 1, 7, C_
	note B_, 4
	note __, 2
	slidepitchto 1, 7, C_
	note B_, 1
	note __, 7
	slidepitchto 1, 7, C_
	note B_, 1
	note __, 16
	note __, 16
	note __, 16
	note __, 16
	note __, 16
	note __, 16
	note __, 16
	note __, 16
	note __, 16
	note __, 16
	note __, 16
	note __, 16
	note __, 16
	note __, 16
	note __, 16
	note __, 9
	dutycycle 1
	intensity $C3
	octave 3
	note D_, 2
	note __, 2
	note D_, 2
	note __, 2
	note D_, 2
	note __, 2
	note D_, 2
	note __, 2
	note D_, 2
	note __, 2
	note D_, 2
	note __, 2
	note D_, 2
	note __, 2
	note D_, 2
	slidepitchto 1, 7, C_
	note E_, 2
	note __, 2
	slidepitchto 1, 7, C_
	note E_, 2
	note __, 2
	slidepitchto 1, 7, C_
	note E_, 2
	slidepitchto 1, 7, C_
	note E_, 2
	slidepitchto 1, 7, C_
	note E_, 2
	note __, 4
	slidepitchto 1, 7, C_
	note E_, 2
	note __, 2
	slidepitchto 1, 7, C_
	note E_, 2
	slidepitchto 1, 7, C_
	note E_, 2
	slidepitchto 1, 7, C_
	note E_, 2
	slidepitchto 1, 7, C_
	note E_, 2
	note __, 16
	note __, 16
	note __, 2
	slidepitchto 1, 7, C_
	note E_, 2
	note __, 2
	slidepitchto 1, 7, C_
	note E_, 2
	note __, 2
	slidepitchto 1, 7, C_
	note E_, 2
	slidepitchto 1, 7, C_
	note E_, 2
	slidepitchto 1, 7, C_
	note E_, 2
	note __, 4
	slidepitchto 1, 7, C_
	note E_, 2
	note __, 2
	slidepitchto 1, 7, C_
	note E_, 2
	slidepitchto 1, 7, C_
	note E_, 2
	slidepitchto 1, 7, C_
	note E_, 2
	slidepitchto 1, 7, C_
	note E_, 2
	notetype $A, $C3
	note __, 4
	notetype $C, $C3
	note D_, 2
	notetype $8, $C3
	note __, 1
	intensity $C5
	note E_, 3
	note E_, 3
	note __, 3
	intensity $C3
	note D_, 3
	note C_, 3
	note D_, 3
	notetype $F, $C3
	note __, 16
	slidepitchto 1, 7, C_
	notetype $C, $C3
	note E_, 2
	note __, 2
	slidepitchto 1, 7, C_
	note E_, 2
	slidepitchto 1, 7, C_
	note E_, 2
	slidepitchto 1, 7, C_
	note E_, 2
	note __, 16
	note __, 16
	note __, 16
	note __, 2
	intensity $C5
	note A_, 6
	note B_, 6
	octave 4
	note C_, 6
	note D_, 6
	note D#, 4
	note E_, 4
	loopchannel 0, Music_EyesOfFlame_Ch1_loop

Music_EyesOfFlame_Ch2:
Music_EyesOfFlame_Ch2_loop:
	dutycycle 1
	vibrato $00, $13
	octave 3
	notetype $C, $83
	note E_, 4
	note __, 4
	note E_, 2
	note E_, 4
	note __, 4
	note E_, 4
	note __, 2
	note E_, 2
	note E_, 3
	note __, 5
	note E_, 4
	note __, 2
	note E_, 2
	note E_, 4
	note __, 2
	note E_, 4
	note __, 4
	note E_, 2
	note E_, 4
	note __, 2
	note E_, 4
	note __, 4
	note E_, 2
	note E_, 4
	note __, 4
	note E_, 4
	note __, 2
	note E_, 2
	note E_, 3
	note __, 5
	note E_, 4
	note __, 2
	note E_, 2
	note E_, 4
	note __, 2
	note E_, 4
	note __, 4
	note E_, 2
	note E_, 4
	note __, 2
	intensity $C3
	note E_, 1
	note __, 1
	note B_, 2
	note E_, 2
	note B_, 2
	intensity $C1
	note E_, 1
	note __, 1
	intensity $C3
	note B_, 2
	note E_, 2
	note F#, 2
	intensity $C1
	note G_, 1
	note __, 1
	intensity $C3
	note F#, 2
	note G_, 2
	note A_, 4
	note G_, 2
	note F#, 2
	note D_, 2
	octave 2
	note A_, 2
	note G_, 2
	note F#, 2
	note D_, 2
	intensity $C1
	note E_, 1
	note F#, 1
	note G_, 1
	note B_, 1
	octave 3
	note E_, 1
	note G_, 1
	note A_, 1
	note B_, 1
	intensity $C3
	octave 4
	note C_, 2
	intensity $C1
	octave 3
	note B_, 1
	note __, 1
	note B_, 1
	note __, 1
	intensity $C3
	octave 4
	note C_, 4
	intensity $C1
	octave 3
	note B_, 1
	note __, 1
	note B_, 1
	note __, 1
	note B_, 1
	note __, 1
	octave 1
	note B_, 1
	octave 2
	note E_, 1
	note A_, 1
	note B_, 1
	intensity $C5
	octave 3
	note E_, 6
	intensity $C1
	note E_, 1
	note __, 1
	note E_, 1
	note __, 1
	note E_, 1
	note __, 1
	intensity $C3
	note E_, 2
	intensity $C1
	note D#, 1
	note __, 1
	note D#, 1
	note __, 1
	intensity $C3
	note D#, 2
	intensity $C1
	note D_, 1
	note __, 1
	note D_, 1
	note __, 1
	note C#, 1
	note __, 1
	octave 2
	note B_, 1
	note __, 1
	octave 1
	note B_, 1
	octave 2
	note E_, 1
	note A_, 1
	note B_, 1
	intensity $C5
	octave 3
	note E_, 6
	intensity $C1
	note E_, 1
	note __, 1
	note E_, 1
	note __, 1
	note E_, 1
	note __, 1
	intensity $C3
	note E_, 2
	intensity $C1
	note D#, 1
	note __, 1
	note D#, 1
	note __, 1
	intensity $C3
	note D#, 2
	intensity $C1
	note D_, 1
	note __, 1
	note D_, 1
	note __, 1
	note C_, 1
	note __, 1
	octave 2
	note B_, 1
	note __, 1
	octave 3
	note B_, 1
	note __, 1
	intensity $C3
	octave 4
	note B_, 2
	note E_, 2
	note B_, 2
	intensity $C1
	octave 3
	note B_, 1
	note __, 1
	intensity $C3
	octave 4
	note B_, 2
	note E_, 2
	note F#, 2
	intensity $C1
	note G_, 1
	note __, 1
	intensity $C3
	note F#, 2
	note G_, 2
	note A_, 4
	note G_, 2
	note F#, 2
	note D_, 2
	octave 3
	note A_, 2
	note G_, 2
	note F#, 2
	note D_, 2
	intensity $C1
	note E_, 1
	note F#, 1
	note G_, 1
	note B_, 1
	octave 4
	note E_, 1
	note G_, 1
	note A_, 1
	note B_, 1
	intensity $C3
	octave 5
	note C_, 2
	intensity $C1
	octave 4
	note B_, 1
	note __, 1
	note B_, 1
	note __, 1
	intensity $C3
	octave 5
	note C_, 4
	intensity $C1
	octave 4
	note B_, 1
	note __, 1
	note B_, 1
	note __, 1
	note B_, 1
	note __, 1
	octave 2
	note B_, 1
	octave 3
	note E_, 1
	note A_, 1
	note B_, 1
	intensity $C5
	octave 4
	note E_, 6
	intensity $C1
	note E_, 1
	note __, 1
	note E_, 1
	note __, 1
	note E_, 1
	note __, 1
	intensity $C3
	note E_, 2
	intensity $C1
	note D#, 1
	note __, 1
	note D#, 1
	note __, 1
	intensity $C3
	note D#, 2
	intensity $C1
	note D_, 1
	note __, 1
	note D_, 1
	note __, 1
	note C#, 1
	note __, 1
	octave 3
	note B_, 1
	note __, 1
	octave 2
	note B_, 1
	octave 3
	note E_, 1
	note A_, 1
	note B_, 1
	intensity $C5
	octave 4
	note E_, 6
	intensity $C1
	note E_, 1
	note __, 1
	note E_, 1
	note __, 1
	note E_, 1
	note __, 1
	intensity $C3
	note E_, 2
	intensity $C1
	note D#, 1
	note __, 1
	note D#, 1
	note __, 1
	intensity $C3
	note D#, 2
	intensity $C1
	note D_, 1
	note __, 1
	note D_, 1
	note __, 1
	note C_, 1
	note __, 1
	octave 3
	note B_, 1
	note __, 1
	dutycycle 0
	octave 4
	note E_, 1
	note __, 1
	octave 3
	note A_, 1
	note __, 1
	octave 4
	note C_, 1
	note __, 1
	intensity $C3
	note D_, 2
	note __, 2
	note D_, 2
	note C_, 2
	note D_, 2
	note E_, 2
	octave 3
	note A_, 2
	octave 4
	note D_, 2
	octave 3
	note A_, 2
	octave 4
	note C_, 2
	note D_, 2
	note __, 2
	note D_, 2
	dutycycle 1
	octave 3
	note B_, 2
	note __, 2
	note B_, 2
	note __, 2
	note B_, 2
	note B_, 2
	note B_, 2
	note __, 4
	note B_, 2
	note __, 2
	note B_, 2
	note B_, 2
	note B_, 2
	note B_, 2
	intensity $C1
	note G_, 1
	note B_, 1
	intensity $C3
	octave 4
	note E_, 2
	octave 3
	note A_, 2
	octave 4
	note C_, 2
	note D_, 4
	note D_, 2
	note C_, 2
	note D_, 2
	note E_, 4
	note D_, 4
	note C_, 2
	note D_, 4
	note D_, 2
	octave 3
	note B_, 2
	note __, 2
	note B_, 2
	note __, 2
	note B_, 2
	note B_, 2
	note B_, 2
	note __, 4
	note B_, 2
	note __, 2
	note B_, 2
	note B_, 2
	note B_, 2
	note B_, 2
	intensity $C1
	note E_, 1
	note F#, 1
	intensity $C3
	note G_, 2
	note A_, 2
	note __, 2
	note A_, 2
	note __, 2
	note A_, 2
	note __, 2
	note A_, 2
	intensity $C1
	note G_, 1
	note __, 1
	intensity $81
	note D_, 1
	intensity $C1
	note G_, 1
	note A_, 1
	intensity $81
	note D_, 1
	intensity $C1
	note D_, 1
	note A_, 1
	note B_, 1
	intensity $81
	note D_, 1
	intensity $C1
	note D_, 1
	note B_, 1
	octave 4
	note C_, 1
	intensity $81
	octave 3
	note D_, 1
	intensity $C1
	note G_, 1
	octave 4
	note C#, 1
	intensity $C3
	note D_, 4
	octave 3
	note B_, 2
	note __, 2
	note B_, 2
	note B_, 2
	note B_, 2
	intensity $C1
	octave 4
	note C_, 1
	octave 3
	note B_, 1
	octave 2
	note B_, 1
	octave 3
	note E_, 1
	note G_, 1
	note B_, 1
	intensity $C3
	octave 4
	note E_, 2
	intensity $C1
	octave 3
	note B_, 1
	note E_, 1
	note __, 6
	note E_, 1
	note F#, 1
	note __, 2
	intensity $C3
	note D_, 2
	note E_, 2
	note E_, 2
	note G_, 2
	note E_, 2
	note D_, 2
	note E_, 2
	intensity $C1
	note G_, 1
	note __, 1
	intensity $81
	note D_, 1
	intensity $C1
	note G_, 1
	note B_, 1
	intensity $81
	note D_, 1
	intensity $C1
	note D_, 1
	note B_, 1
	octave 4
	note C_, 1
	intensity $81
	octave 3
	note D_, 1
	intensity $C1
	note D_, 1
	octave 4
	note C_, 1
	note D_, 1
	intensity $81
	octave 3
	note D_, 1
	intensity $C1
	octave 4
	note E_, 1
	note F#, 1
	intensity $C5
	note G_, 6
	note F#, 6
	note G_, 6
	note F#, 6
	note G_, 4
	note F#, 4
	loopchannel 0, Music_EyesOfFlame_Ch2_loop

Music_EyesOfFlame_Ch3:
	dutycycle 4
	octave 2
	notetype $C, $14
Music_EyesOfFlame_Ch3_Ditty1:	
	note E_, 1
	note B_, 1
	note E_, 1
	note B_, 1
	note E_, 1
	note __, 1
	note B_, 1
	note __, 1
	octave 3
	note C_, 1
	note __, 1
	octave 2
	note B_, 4
	note A_, 1
	note __, 1
	note G_, 1
	note B_, 1
	note G_, 1
	note B_, 1
	note G_, 1
	note __, 1
	note B_, 1
	note __, 1
	note F#, 1
	note B_, 1
	note F#, 1
	note B_, 1
	note E_, 1
	note __, 1
	note D_, 1
	note __, 1
	note E_, 1
	note B_, 1
	note E_, 1
	note B_, 1
	note E_, 1
	note __, 1
	note B_, 1
	note __, 1
	octave 3
	note C_, 1
	note __, 1
	octave 2
	note B_, 4
	note A_, 1
	note __, 3
	note F_, 2
	note A_, 2
	note G_, 2
	note F#, 2
	note F_, 2
	note E_, 2
	note D_, 2
	loopchannel 6, Music_EyesOfFlame_Ch3_Ditty1
	;fallthrough
Music_EyesOfFlame_Ch3_Ditty2:
	note F_, 1
	octave 3
	note D_, 1
	octave 2
	note F_, 1
	octave 3
	note D_, 1
	octave 2
	note F_, 1
	note __, 1
	octave 3
	note D_, 1
	note __, 1
	note E_, 1
	note __, 1
	note D_, 4
	octave 2
	note B_, 1
	note __, 1
	octave 3
	note D_, 1
	note __, 1
	note C_, 4
	octave 2
	note B_, 1
	note __, 1
	note B_, 2
	note G_, 2
	note A_, 2
	note B_, 2
	note E_, 1
	note B_, 1
	note E_, 1
	note B_, 1
	note E_, 1
	note __, 1
	note B_, 1
	note __, 1
	octave 3
	note C_, 1
	note __, 1
	octave 2
	note B_, 4
	note G_, 2
	note E_, 1
	note B_, 1
	note E_, 1
	note B_, 1
	note E_, 1
	note __, 1
	note A_, 1
	note __, 1
	note B_, 1
	note __, 1
	note G_, 4
	note D_, 1
	note __, 1
	loopchannel 4, Music_EyesOfFlame_Ch3_Ditty2
	;loop channel same as first ditty address
	loopchannel 0, Music_EyesOfFlame_Ch3_Ditty1

