; Himno de la URSS aka USSR aka CCCP
; Arreglo para Pokémon Cristal por Manectric-Rang

Music_CCCP:
	musicheader 3, 1, Music_CCCP_Ch1
	musicheader 1, 2, Music_CCCP_Ch2
	musicheader 1, 3, Music_CCCP_Ch3


Music_CCCP_Ch1:
	tempo 260
	volume $77
	stereopanning $0c
	dutycycle $3
	tone $0002
	notetype $c, $b8
	octave 4
	note A#, 12
	intensity $b1
	note A#, 1
	note __, 7

Music_CCCP_Ch1_soYUZ:
	dutycycle $2
	intensity $97
	octave 3
	note G_, 4
	note G_, 4
	note A#, 4
	note D_, 4
	note D#, 4
	note D#, 4
	note D#, 4
	octave 2
	note A#, 4

	note G#, 4
	octave 3
	note C_, 4
	note C_, 4
	note C_, 2
	note C_, 2
	note C_, 4
	note D_, 2
	note D#, 2
	note D_, 2
	note D_, 2
	note C_, 2
	octave 2
	note A#, 2

	octave 3
	note A#, 4
	note F_, 3
	note D#, 1
	note F_, 4
	note F_, 2
	note D_, 2
	note G_, 4
	note D_, 3
	note C_, 1
	note D_, 4
	note D_, 2
	octave 2
	note A#, 2

	octave 3
	note D#, 4
	note D#, 4
	note D#, 4
	octave 2
	note A#, 4
	octave 3
	note A_, 4
	note G_, 3
	note A_, 1
	note D_, 2
	note D_, 2
	note D#, 2
	note F_, 2

	note A#, 8
	octave 4
	note D_, 2
	note C_, 2
	octave 3
	note A#, 2
	octave 4
	note C_, 2
	note D_, 2
	notetype $4, $92
	note A#, 2
	note A#, 2
	note A#, 2
	notetype $c, $97
	note A#, 2
	octave 3
	note D_, 2
	note D_, 2
	note D_, 2
	note D#, 2
	note F_, 2

	note G_, 8
	note A#, 2
	note A_, 2
	note G_, 2
	note A_, 2
	note A#, 2
	notetype $4, $92
	octave 4
	note G_, 2
	note G_, 2
	note G_, 2
	notetype $c, $97
	note G_, 2
	octave 2
	note A#, 2
	note A#, 2
	octave 3
	note G_, 2
	note G#, 2
	note A#, 2

	octave 4
	note C_, 4
	octave 3
	note G#, 3
	note A#, 1
	octave 4
	note C_, 4
	octave 3
	note G#, 3
	note A#, 1

	octave 4
	note C_, 4
	octave 3
	note G#, 2
	octave 4
	note C_, 2
	note D#, 2
	notetype $4, $c1
	note G#, 2
	note G#, 2
	note G#, 2
	notetype $c, $c4
	note G#, 2
	note G#, 2

	intensity $97
	note C_, 8
	note D_, 4
	note C_, 2
	note D_, 2
	note D#, 6
	octave 3
	note A#, 2
	note A#, 8

	octave 4
	note C_, 8
	octave 3
	note B_, 4
	note A_, 2
	note B_, 2
	octave 4
	note C_, 6
	octave 3
	note G_, 2
	note G_, 8

	octave 4
	note C_, 4
	octave 3
	note A#, 2
	note G#, 2
	note D#, 4
	note D#, 3
	note D#, 1
	note A_, 4
	note G_, 3
	note A_, 1
	note D_, 8
	
	loopchannel 0, Music_CCCP_Ch1_soYUZ



Music_CCCP_Ch2:
	stereopanning $c0
	dutycycle $2
	tone $0001
	notetype $c, $d8
	octave 3
	note D#, 12
	intensity $d1
	note D#, 1
	note __, 5

Music_CCCP_Ch2_Soyuz:
	dutycycle $1
	vibrato $12, $23
	octave 3
	intensity $c7
	note A#, 2
	octave 4
	note D#, 4
	octave 3
	note A#, 3
	octave 4
	note C_, 1
	note D_, 4
	octave 3
	intensity $c5
	note G_, 2
	intensity $c7
	note G_, 2
	octave 4

	note C_, 4
	octave 3
	intensity $c3
	note A#, 3
	intensity $c7
	note G#, 1
	note A#, 4
	intensity $c3
	note D#, 2
	intensity $c7
	note D#, 2

	note F_, 4
	note F_, 2
	note G_, 2
	note G#, 4
	note G#, 2
	note A#, 2

	octave 4
	note C_, 4
	note D_, 2
	note D#, 2
	note F_, 5
	note __, 1

	octave 3
	note A#, 2
	octave 4
	note G_, 4
	note F_, 3
	note D#, 1
	note F_, 4
	note D_, 2
	octave 3
	note A#, 2

	octave 4
	note D#, 4
	intensity $c5
	note D_, 3
	intensity $c7
	note C_, 1
	note D_, 4
	octave 3
	intensity $c3
	note G_, 2
	intensity $c7
	note G_, 2

	octave 4
	note C_, 4
	octave 3
	note A#, 2
	note G#, 2
	note A#, 4
	intensity $c5
	note D#, 3
	intensity $c7
	note D#, 1

	octave 4
	note D#, 4
	intensity $c5
	note D_, 3
	intensity $c7
	note C_, 1
	octave 3
	note A#, 5
	note __, 3

	octave 4
	note G_, 8
	note F_, 2
	note D#, 2
	note D_, 2
	note D#, 2
	note F_, 6
	octave 3
	note A#, 2
	note A#, 5
	note __, 3

	octave 4
	note D#, 8
	note D_, 2
	note C_, 2
	octave 3
	note A#, 2
	octave 4
	note C_, 2
	note D_, 6
	octave 3
	note G_, 2
	note G_, 2
	dutycycle $2
	intensity $57
	note A#, 2
	octave 4
	note C_, 2
	note D_, 2
	dutycycle $1
	intensity $c7

	note D#, 4
	intensity $c5
	note C_, 3
	intensity $c7
	note D_, 1
	note D#, 4
	intensity $c3
	note C_, 3
	intensity $c7
	note D_, 1

	note D#, 4
	note C_, 2
	note D#, 2
	intensity $d8
	note G#, 6
	intensity $d5
	note G#, 2

	intensity $c7
	note G#, 8
	note G_, 2
	note F_, 2
	note D#, 2
	note F_, 2
	note G_, 6
	note D#, 2
	note D#, 8

	note F_, 8
	note D#, 2
	note D_, 2
	note C_, 2
	note D_, 2
	note D#, 6
	note C_, 2
	note C_, 8

	note D#, 4
	note D_, 2
	note C_, 2
	octave 3
	note A#, 4
	note D#, 3
	note D#, 1
	octave 4
	note D#, 4
	note D_, 3
	note C_, 1
	octave 3
	note A#, 5
	note __, 1

	loopchannel 0, Music_CCCP_Ch2_Soyuz



Music_CCCP_Ch3:
	notetype $c, $17
	vibrato $8, $22
	octave 2
	note D#, 12
	note __, 8

Music_CCCP_Ch3_soYUZ:
	octave 2
	note D#, 8
	note G_, 8
	note G#, 8
	note G_, 8
	note F_, 8
	note D#, 8
	note D#, 4
	note D_, 2
	note C_, 2
	octave 1
	note A#, 2
	octave 2
	note G#, 2
	note G_, 2
	note F_, 2

	note D#, 4
	note G_, 4
	note A#, 2
	note F_, 2
	note D_, 2
	octave 1
	note A#, 2

	octave 2
	note C_, 4
	note D#, 4
	note G_, 2
	note D_, 2
	octave 1
	note A#, 2
	note G_, 2

	octave 2
	note G#, 4
	note F_, 4
	note G_, 8
	note F_, 8
	note A#, 2
	note G#, 2
	note G_, 2
	note F_, 2

	note D#, 2
	note D_, 2
	note D#, 2
	note F_, 2
	note G_, 8

	octave 1
	note A#, 4
	octave 2
	note D_, 2
	note F_, 2
	octave 1
	note A#, 4
	note G#, 2
	note A#, 2

	octave 2
	note C_, 2
	octave 1
	note G_, 2
	octave 2
	note C_, 2
	note D_, 2
	note D#, 8

	octave 1
	note G_, 4
	note A#, 2
	octave 2
	note D_, 2
	octave 1
	note G_, 2
	octave 2
	note G_, 2
	note F_, 2
	octave 1
	note A#, 2

	note G#, 6
	octave 2
	note D#, 2
	octave 3
	note C_, 6
	octave 2
	note A#, 2

	note G#, 6
	note D#, 2
	octave 3
	note C_, 2
	octave 2
	note A#, 2
	note G#, 2
	note G_, 2

	note F_, 6
	note G_, 1
	note G#, 1
	note A#, 4
	octave 1
	note A#, 4

	octave 2
	note D#, 2
	note D_, 2
	note D#, 2
	note G_, 2
	note F_, 2
	note D#, 2
	note D_, 2
	note C_, 2

	note D_, 6
	note D#, 1
	note F_, 1
	note G_, 4
	octave 1
	note G_, 4

	octave 2
	note C_, 2
	note D_, 2
	note D#, 2
	note F_, 2
	octave 3
	note C_, 4
	octave 2
	note A#, 4

	note G#, 4
	note F_, 4
	note G_, 8
	note F_, 8
	note A#, 4
	octave 1
	note A#, 4
	
	loopchannel 0, Music_CCCP_Ch3_soYUZ
