Music_MadWorld:
	musicheader 2, 1, Music_MadWorld_Ch1
	musicheader 1, 2, Music_MadWorld_Ch2

Music_MadWorld_Ch1:
	tempo $EC
	volume $77
	stereopanning $77
	dutycycle 1
	vibrato $00, $15
	octave 3
	notetype $C, $B7
	note G#, 2
	octave 4
	note C_, 2
	octave 3
	note G_, 2
	note G#, 2
	note F_, 2
	note G_, 2
	note D#, 2
	note D_, 16
	note G#, 4
	octave 4
	note C_, 2
	octave 3
	note G_, 2
	note G#, 2
	note F_, 2
	note G_, 2
	note G#, 2
	note A#, 16
	note __, 2
Music_MadWorld_Ch1_Loop:
	note __, 4
	note F_, 2
	note F_, 2
	note G#, 2
	note G#, 2
	note F_, 2
	note F_, 2
	octave 4
	note C_, 2
	note C_, 4
	note C_, 4
	octave 3
	note G#, 6
	note A#, 2
	note A#, 4
	note A#, 4
	note G_, 6
	note A#, 2
	note A#, 4
	note A#, 4
	note G#, 2
	note G_, 2
	note F_, 6
	note F_, 2
	note F_, 2
	note G#, 2
	note G#, 2
	note F_, 2
	note F_, 2
	octave 4
	note C_, 2
	note C_, 4
	note C_, 4
	octave 3
	note G#, 6
	note A#, 2
	note A#, 4
	note A#, 4
	note G_, 6
	note A#, 2
	note A#, 4
	note A#, 4
	note G#, 2
	note G_, 2
	note F_, 8
	note F_, 2
	note G#, 2
	note G#, 2
	note F_, 2
	note F_, 2
	octave 4
	note C_, 2
	note C_, 4
	note C_, 4
	octave 3
	note G#, 6
	note A#, 2
	note A#, 4
	note A#, 4
	note G_, 6
	note A#, 2
	note A#, 4
	note A#, 4
	note G#, 2
	note G_, 2
	note F_, 6
	note F_, 2
	note F_, 2
	note G#, 2
	note G#, 2
	note F_, 2
	note F_, 2
	octave 4
	note C_, 2
	note C_, 4
	note C_, 4
	octave 3
	note G#, 6
	note A#, 2
	note A#, 4
	note A#, 4
	note G_, 6
	note A#, 2
	note A#, 4
	note A#, 4
	note G#, 2
	note G_, 2
	note F_, 6
	note F_, 2
	note F_, 2
	note G#, 2
	note G#, 2
	octave 4
	note C_, 2
	note C_, 2
	note D_, 2
	octave 3
	note A#, 4
	note A#, 2
	octave 4
	note D_, 2
	note D_, 2
	octave 3
	note A#, 2
	note A#, 2
	note F_, 6
	note F_, 2
	note G#, 2
	note G#, 2
	octave 4
	note C_, 2
	note C_, 2
	note D_, 2
	octave 3
	note A#, 2
	note A#, 2
	note A#, 2
	octave 4
	note D_, 2
	note D_, 2
	octave 3
	note A#, 2
	note A#, 2
	note F_, 6
	note F_, 2
	note G#, 2
	note G#, 2
	octave 4
	note C_, 2
	note C_, 2
	note D_, 2
	octave 3
	note A#, 4
	note A#, 2
	octave 4
	note D_, 2
	note D_, 2
	octave 3
	note A#, 2
	note A#, 2
	note F_, 6
	note F_, 2
	note G#, 2
	note G#, 2
	octave 4
	note C_, 2
	note C_, 2
	note D_, 2
	octave 3
	note A#, 2
	note A#, 2
	note A#, 2
	octave 4
	note D_, 2
	note D_, 2
	octave 3
	note A#, 2
	note A#, 2
	note G#, 2
	octave 4
	note C_, 2
	octave 3
	note G_, 2
	note G#, 2
	note F_, 2
	note G_, 2
	note D#, 2
	note D_, 16
	note G#, 4
	octave 4
	note C_, 2
	octave 3
	note G_, 2
	note G#, 2
	note F_, 2
	note G_, 2
	note G#, 2
	note A#, 16
	note __, 2
	loopchannel 0, Music_MadWorld_Ch1_Loop

Music_MadWorld_Ch2:
	dutycycle 1
	vibrato $00, $15
	notetype $C, $A7
	callchannel Music_MadWorld_Ch2_ditty_1
	callchannel Music_MadWorld_Ch2_ditty_1
Music_MadWorld_Ch2_Loop:
	callchannel Music_MadWorld_Ch2_ditty_2
	callchannel Music_MadWorld_Ch2_ditty_3
	callchannel Music_MadWorld_Ch2_ditty_2
	callchannel Music_MadWorld_Ch2_ditty_3
	callchannel Music_MadWorld_Ch2_ditty_2
	callchannel Music_MadWorld_Ch2_ditty_3
	callchannel Music_MadWorld_Ch2_ditty_2
	note D#, 4
	note A#, 4
	note D#, 4
	note A#, 4
	note A#, 4
	octave 3
	note F_, 12
	callchannel Music_MadWorld_Ch2_ditty_1
	callchannel Music_MadWorld_Ch2_ditty_1
	callchannel Music_MadWorld_Ch2_ditty_1
	octave 2
	note F_, 4
	octave 3
	note C_, 4
	octave 2
	note F_, 4
	octave 3
	note C_, 4
	octave 2
	note A#, 4
	octave 3
	note F_, 12
	callchannel Music_MadWorld_Ch2_ditty_1
	callchannel Music_MadWorld_Ch2_ditty_1
    loopchannel 0, Music_MadWorld_Ch2_Loop

Music_MadWorld_Ch2_ditty_1:	
	octave 2
	note F_, 4
	octave 3
	note C_, 4
	octave 2
	note F_, 4
	octave 3
	note C_, 4
	octave 2
	note A#, 4
	octave 3
	note F_, 4
	octave 2
	note A#, 4
	octave 3
	note F_, 4
	endchannel
	
Music_MadWorld_Ch2_ditty_2:	
	octave 2
	note F_, 4
	octave 3
	note C_, 4
	octave 2
	note F_, 4
	octave 3
	note C_, 4
	octave 2
	note G#, 4
	octave 3
	note D#, 4
	octave 2
	note G#, 4
	octave 3
	note D#, 4
	octave 2
	endchannel
	
Music_MadWorld_Ch2_ditty_3:		
	note D#, 4
	note A#, 4
	note D#, 4
	note A#, 4
	note A#, 4
	octave 3
	note F_, 4
	octave 2
	note A#, 4
	octave 3
	note F_, 4	
	endchannel