Music_SplatoonTheme:
	musicheader 4, 1, Music_SplatoonTheme_Ch1
	musicheader 1, 2, Music_SplatoonTheme_Ch2
	musicheader 1, 3, Music_SplatoonTheme_Ch3
	musicheader 1, 4, Music_SplatoonTheme_Ch4

Music_SplatoonTheme_Ch1:
	tempo $6D
	volume $77
	stereopanning $77
	notetype $C, $00
	note __, 16
Music_SplatoonTheme_Ch1_loop:
	dutycycle 1
	intensity $A8
	vibrato $00, $13
	octave 1
	note A_, 16
	note A_, 16
	octave 2
	note C_, 16
	note C_, 16
	octave 1
	note G_, 16
	note G_, 16
	intensity $C7
	octave 2
	note E_, 2
	note G_, 2
	note A_, 2
	note E_, 8
	note D_, 2
	note __, 2
	note D_, 2
	note __, 2
	note G#, 10
	note E_, 2
	note G_, 2
	note A_, 2
	note E_, 8
	note D_, 2
	note __, 2
	note D_, 2
	note __, 2
	octave 1
	note B_, 10
	octave 2
	note E_, 2
	note G_, 2
	note A_, 2
	note E_, 8
	note D_, 2
	note __, 2
	note D_, 2
	note __, 2
	note G#, 10
	note E_, 2
	note G_, 2
	note A_, 2
	note E_, 8
	note D_, 2
	note __, 2
	note D_, 2
	note __, 2
	octave 1
	note B_, 10
	note __, 16
	note __, 16
	note __, 16
	note __, 16
	note __, 16
	note __, 16
	note __, 16
	note __, 16
	note A#, 2
	octave 2
	note C#, 2
	note D#, 2
	octave 1
	note A#, 8
	note G#, 2
	note __, 2
	note G#, 2
	note __, 2
	note A_, 10
	note A#, 2
	octave 2
	note C#, 2
	note D#, 2
	octave 1
	note A#, 8
	note G#, 2
	note __, 2
	note G#, 2
	note __, 2
	note F_, 10
	note A_, 2
	octave 2
	note C_, 2
	note D_, 2
	octave 1
	note A_, 8
	note G_, 2
	note __, 2
	note G_, 2
	note __, 2
	note G#, 10
	note A_, 2
	octave 2
	note C_, 2
	note D_, 2
	octave 1
	note A_, 8
	note G_, 2
	note __, 2
	note G_, 2
	note __, 2
	note E_, 10
	octave 3
	note E_, 16
	note E_, 16
	octave 2
	note F#, 6
	octave 3
	note E_, 6
	octave 2
	note B_, 4
	note F#, 6
	octave 3
	note E_, 6
	octave 2
	note B_, 4
	note B_, 6
	octave 3
	note E_, 6
	octave 2
	note B_, 10
	octave 3
	note E_, 6
	octave 2
	note B_, 4
	octave 3
	note D_, 6
	note F#, 6
	note G_, 6
	note F#, 14
	note E_, 16
	note E_, 12
	octave 2
	note F#, 4
	note F#, 6
	octave 3
	note E_, 6
	octave 2
	note B_, 4
	note F#, 16
	octave 3
	note F_, 8
	note F_, 2
	note F_, 2
	note __, 2
	note E_, 16
	note __, 2
	note F_, 8
	note F_, 2
	note F_, 2
	note __, 2
	note E_, 4
	note __, 2
	note E_, 4
	note __, 8
	loopchannel 0, Music_SplatoonTheme_Ch1_loop

Music_SplatoonTheme_Ch2:
	notetype $C, $00
	note __, 16
Music_SplatoonTheme_Ch2_loop:
	sound_duty $00
	intensity $C1
	vibrato $00, $13
	octave 4
	note C_, 1
	note C_, 1
	note C_, 1
	note C_, 1
	intensity $C7
	octave 3
	note A_, 4
	intensity $C1
	octave 4
	note C_, 1
	note C_, 1
	note C_, 1
	note C_, 1
	intensity $C7
	octave 3
	note A_, 4
	octave 4
	note C_, 2
	note E_, 4
	note D_, 10
	note C_, 4
	octave 3
	note A_, 4
	octave 4
	note C_, 4
	octave 3
	note A_, 4
	octave 4
	note C_, 2
	note E_, 6
	note D_, 8
	note C_, 4
	octave 3
	note A_, 4
	octave 4
	note C_, 4
	octave 3
	note A_, 4
	octave 4
	note C_, 2
	note E_, 4
	note D_, 10
	sound_duty $AA
	intensity $A8
	vibrato $06, $44
	octave 3
	note B_, 2
	note A_, 2
	note G_, 2
	note E_, 14
	note E_, 6
	note __, 2
	note D#, 2
	note E_, 2
	note B_, 2
	note A_, 2
	note G_, 2
	note E_, 6
	note D#, 2
	note E_, 14
	note E_, 4
	octave 4
	note B_, 2
	note A_, 2
	note G_, 2
	note E_, 14
	note E_, 6
	note __, 2
	note D#, 2
	note E_, 2
	note B_, 2
	note A_, 2
	note G_, 2
	note E_, 6
	note D#, 2
	note E_, 16
	note __, 2
	sound_duty $55
	vibrato $00, $13
	octave 3
	note A_, 2
	octave 4
	note C_, 2
	note D_, 2
	octave 3
	note A_, 8
	note G_, 2
	note __, 2
	note G_, 2
	note __, 2
	octave 4
	note C#, 10
	octave 3
	note A_, 2
	octave 4
	note C_, 2
	note D_, 2
	octave 3
	note A_, 10
	note __, 2
	note G_, 2
	note __, 2
	note E_, 10
	note A_, 2
	octave 4
	note C_, 2
	note D_, 2
	octave 3
	note A_, 8
	note G_, 2
	note __, 2
	note G_, 2
	note __, 2
	octave 4
	note C#, 10
	octave 3
	note A_, 2
	octave 4
	note C_, 2
	note D_, 2
	octave 3
	note A_, 8
	note G_, 2
	note __, 2
	note G_, 2
	note __, 2
	note E_, 2
	note __, 8
	note A#, 2
	octave 4
	note C#, 2
	note D#, 2
	octave 3
	note A#, 8
	note G#, 2
	note __, 2
	note G#, 2
	note __, 2
	octave 4
	note D_, 10
	octave 3
	note A#, 2
	octave 4
	note C#, 2
	note D#, 2
	octave 3
	note A#, 8
	note G#, 2
	note __, 2
	note G#, 2
	note __, 2
	note F_, 10
	note A_, 2
	octave 4
	note C_, 2
	note D_, 2
	octave 3
	note A_, 8
	note G_, 2
	note __, 2
	note G_, 2
	note __, 2
	octave 4
	note C#, 10
	octave 3
	note A_, 2
	octave 4
	note C_, 2
	note D_, 2
	octave 3
	note A_, 2
	intensity $C2
	octave 4
	note G_, 2
	note F#, 1
	note G_, 2
	note F#, 1
	note G_, 2
	intensity $A6
	note G_, 12
	intensity $C7
	octave 2
	note A_, 4
	intensity $A8
	octave 3
	note A_, 16
	intensity $A7
	note A_, 6
	note F#, 2
	note A_, 2
	octave 4
	note C_, 2
	octave 3
	note G_, 2
	intensity $A8
	note A_, 16
	intensity $A7
	note A_, 8
	note E_, 2
	note A_, 2
	note B_, 2
	note G#, 2
	intensity $A8
	note E_, 16
	intensity $A7
	note E_, 8
	note G_, 2
	note A_, 2
	octave 4
	note E_, 2
	octave 3
	note G_, 2
	intensity $A8
	note A_, 16
	intensity $A7
	note A_, 6
	octave 4
	note E_, 2
	note D_, 2
	note F#, 2
	note E_, 2
	note A_, 2
	note F#, 2
	intensity $A8
	note A_, 16
	intensity $A7
	note A_, 6
	note F#, 2
	note A_, 2
	note B_, 2
	note F#, 2
	intensity $A8
	note A_, 2
	note A_, 16
	note A_, 1
	note A_, 1
	sound_duty $50
	note G#, 1
	note G_, 1
	note F#, 1
	note F_, 1
	note E_, 1
	note D#, 1
	note D_, 1
	note C#, 1
	note C_, 1
	octave 3
	note B_, 1
	note A#, 1
	note A_, 1
	note G#, 1
	note G_, 1
	note __, 16
	note __, 16
	note __, 16
	note __, 16
	loopchannel 0, Music_SplatoonTheme_Ch2_loop

Music_SplatoonTheme_Ch3:
	notetype $C, $00
	note __, 16
Music_SplatoonTheme_Ch3_loop:
	dutycycle 7
	intensity $17
	octave 1
	note A_, 16
	note A_, 16
	octave 2
	note C_, 16
	note C_, 16
	octave 1
	note G_, 16
	note G_, 16
	note A_, 2
	octave 2
	note C_, 2
	note D_, 2
	octave 1
	note A_, 8
	note G_, 2
	note __, 2
	note G_, 4
	octave 2
	note C#, 10
	octave 1
	note A_, 2
	octave 2
	note C_, 2
	note D_, 2
	octave 1
	note A_, 8
	note G_, 2
	note __, 2
	note G_, 4
	note E_, 10
	note A_, 2
	octave 2
	note C_, 2
	note D_, 2
	octave 1
	note A_, 8
	note G_, 2
	note __, 2
	note G_, 4
	octave 2
	note C#, 10
	octave 1
	note A_, 2
	octave 2
	note C_, 2
	note D_, 2
	octave 1
	note A_, 8
	note G_, 2
	note __, 2
	note G_, 4
	note E_, 10
	note A_, 2
	octave 2
	note C_, 2
	note D_, 2
	octave 1
	note A_, 2
	note A_, 2
	note A_, 2
	note A_, 2
	note G_, 4
	note G_, 2
	note G_, 2
	octave 2
	note C#, 2
	note C#, 2
	note C#, 2
	note C#, 2
	note C#, 2
	octave 1
	note A_, 2
	octave 2
	note C_, 2
	note D_, 2
	octave 1
	note A_, 2
	note A_, 2
	note A_, 2
	note A_, 2
	note G_, 4
	note G_, 2
	note G_, 2
	note E_, 2
	note E_, 2
	note E_, 2
	note E_, 2
	note E_, 2
	note A_, 2
	octave 2
	note C_, 2
	note D_, 2
	octave 1
	note A_, 2
	note A_, 2
	note A_, 2
	note A_, 2
	note G_, 4
	note G_, 2
	note G_, 2
	octave 2
	note C#, 2
	note C#, 2
	note C#, 2
	note C#, 2
	note C#, 2
	octave 1
	note A_, 2
	octave 2
	note C_, 2
	note D_, 2
	octave 1
	note A_, 2
	note A_, 2
	note A_, 2
	note A_, 2
	note G_, 4
	note G_, 2
	note G_, 2
	note E_, 2
	note __, 8
	note A#, 2
	octave 2
	note C#, 2
	note D#, 2
	octave 1
	note A#, 4
	note A#, 2
	note A#, 2
	note G#, 4
	note G#, 2
	note G#, 2
	octave 2
	note D_, 2
	note D_, 2
	note D_, 2
	note D_, 2
	note D_, 2
	octave 1
	note A#, 2
	octave 2
	note C#, 2
	note D#, 2
	octave 1
	note A#, 4
	note A#, 2
	note A#, 2
	note G#, 2
	note __, 2
	note G#, 2
	note __, 2
	note F_, 4
	note F_, 2
	note F_, 2
	note F_, 2
	note A_, 2
	octave 2
	note C_, 2
	note D_, 2
	octave 1
	note A_, 4
	note A_, 2
	note A_, 2
	note G_, 4
	note G_, 2
	note G_, 2
	octave 2
	note C#, 2
	note C#, 2
	note C#, 2
	note C#, 2
	note C#, 2
	octave 1
	note A_, 2
	octave 2
	note C_, 2
	note D_, 2
	octave 1
	note A_, 6
	note A_, 2
	note G_, 2
	note __, 2
	note G_, 2
	note __, 2
	note E_, 2
	note E_, 2
	note E_, 2
	note E_, 2
	note E_, 2
	octave 2
	note D_, 2
	note D_, 2
	note D_, 2
	note D_, 2
	note D_, 2
	note D_, 2
	note D_, 2
	note D_, 2
	note D_, 2
	note D_, 2
	note D_, 2
	note D_, 2
	note D_, 2
	note D_, 2
	note D_, 2
	note D_, 2
	octave 1
	note F#, 2
	note F#, 2
	note F#, 2
	note F#, 2
	note F#, 2
	note F#, 2
	note F#, 2
	note F#, 2
	note F#, 2
	note F#, 2
	note F#, 2
	note F#, 2
	note F#, 2
	note F#, 2
	note F#, 2
	note F#, 2
	octave 2
	note E_, 2
	note E_, 2
	note E_, 2
	note E_, 2
	note E_, 2
	note E_, 2
	note E_, 2
	note E_, 2
	note E_, 2
	note E_, 2
	note E_, 2
	note E_, 2
	note E_, 2
	note E_, 2
	note E_, 2
	note E_, 2
	note D_, 2
	note D_, 2
	note D_, 2
	note D_, 2
	note D_, 2
	note D_, 2
	note D_, 2
	note D_, 2
	note D_, 2
	note D_, 2
	note D_, 2
	note D_, 2
	note D_, 2
	note D_, 2
	note D_, 2
	note D_, 2
	note D_, 2
	note D_, 2
	note D_, 2
	note D_, 2
	note D_, 2
	note D_, 2
	note D_, 2
	note D_, 2
	note D_, 2
	note D_, 2
	note D_, 2
	note D_, 2
	note D_, 2
	note D_, 2
	note D_, 2
	note D_, 2
	octave 1
	note F#, 2
	note F#, 2
	note F#, 2
	note F#, 2
	note F#, 2
	note F#, 2
	note F#, 2
	note F#, 2
	note F#, 2
	note F#, 2
	note F#, 2
	note F#, 2
	note F#, 2
	note F#, 2
	note F#, 2
	note F#, 2
	note F_, 8
	note F_, 2
	note F_, 2
	note __, 2
	note E_, 4
	note E_, 2
	note E_, 2
	note E_, 2
	note E_, 4
	note E_, 4
	note F_, 8
	note F_, 2
	note F_, 2
	note __, 2
	note E_, 16
	note __, 2
	loopchannel 0, Music_SplatoonTheme_Ch3_loop

Music_SplatoonTheme_Ch4:
	togglenoise 3
	notetype $C
	note B_, 4
	note B_, 4
	note B_, 4
	note B_, 4
Music_SplatoonTheme_Ch4_loop:
	note A#, 16
	note __, 12
	note C_, 4
	note A#, 16
	note __, 12
	note C_, 4
	note A#, 16
	note B_, 4
	note B_, 4
	note C_, 1
	note C_, 1
	note C_, 1
	note C_, 1
	note C_, 1
	note C_, 1
	note C_, 1
	note C_, 1
	note A#, 4
	note C_, 4
	note A#, 2
	note A#, 2
	note C_, 4
	note A#, 4
	note C_, 3
	note C_, 1
	note A#, 2
	note A#, 2
	note C_, 4
	note A#, 4
	note C_, 4
	note A#, 2
	note A#, 2
	note C_, 4
	note A#, 4
	note C_, 3
	note C_, 1
	note A#, 2
	note A#, 2
	note C_, 4
	note A#, 4
	note C_, 4
	note A#, 2
	note A#, 2
	note C_, 4
	note A#, 4
	note C_, 3
	note C_, 1
	note A#, 2
	note A#, 2
	note C_, 4
	note A#, 4
	note C_, 4
	note A#, 2
	note A#, 2
	note C_, 4
	note A#, 4
	note C_, 3
	note C_, 1
	note A#, 4
	note C_, 1
	note C_, 1
	note C_, 1
	note C_, 1
	note A#, 4
	note C_, 4
	note A#, 2
	note A#, 2
	note C_, 4
	note A#, 4
	note C_, 3
	note C_, 1
	note A#, 2
	note A#, 2
	note C_, 4
	note A#, 4
	note C_, 4
	note A#, 2
	note A#, 2
	note C_, 4
	note A#, 4
	note C_, 3
	note C_, 1
	note A#, 2
	note A#, 2
	note C_, 4
	note A#, 4
	note C_, 4
	note A#, 2
	note A#, 2
	note C_, 4
	note A#, 4
	note C_, 3
	note C_, 1
	note A#, 2
	note A#, 2
	note C_, 4
	note A#, 4
	note C_, 4
	note A#, 2
	note A#, 2
	note C_, 4
	note C_, 2
	note A#, 2
	note C_, 2
	note A#, 2
	note D_, 1
	note __, 3
	note D_, 1
	note __, 3
	note A#, 4
	note C_, 4
	note A#, 2
	note A#, 2
	note C_, 4
	note A#, 4
	note C_, 3
	note C_, 1
	note A#, 2
	note A#, 2
	note C_, 4
	note A#, 4
	note C_, 4
	note A#, 2
	note A#, 2
	note C_, 4
	note A#, 4
	note C_, 3
	note C_, 1
	note A#, 2
	note A#, 2
	note C_, 4
	note A#, 4
	note C_, 4
	note A#, 2
	note A#, 2
	note C_, 4
	note A#, 4
	note C_, 3
	note C_, 1
	note A#, 2
	note A#, 2
	note C_, 4
	note A#, 4
	note C_, 4
	note A#, 2
	note A#, 2
	note C_, 4
	note A#, 2
	note A#, 2
	note C_, 3
	note C_, 1
	note A#, 2
	note A#, 2
	note C_, 4
	note A#, 4
	note C_, 4
	note A#, 2
	note A#, 2
	note C_, 4
	note A#, 4
	note C_, 3
	note C_, 1
	note A#, 2
	note A#, 2
	note C_, 4
	note A#, 4
	note C_, 4
	note A#, 2
	note A#, 2
	note C_, 4
	note A#, 4
	note C_, 3
	note C_, 1
	note A#, 2
	note A#, 2
	note C_, 4
	note A#, 4
	note C_, 4
	note A#, 2
	note A#, 2
	note C_, 4
	note A#, 4
	note C_, 3
	note C_, 1
	note A#, 2
	note A#, 2
	note C_, 4
	note A#, 4
	note C_, 4
	note A#, 2
	note A#, 2
	note C_, 4
	note A#, 4
	note C_, 3
	note C_, 1
	note A#, 2
	note A#, 2
	note C_, 2
	note C_, 2
	note A#, 4
	note C_, 4
	note A#, 2
	note A#, 2
	note C_, 4
	note A#, 4
	note C_, 3
	note C_, 1
	note A#, 2
	note A#, 2
	note C_, 4
	note A#, 4
	note C_, 4
	note A#, 2
	note A#, 2
	note C_, 4
	note A#, 4
	note C_, 4
	note A#, 4
	note C_, 1
	note C_, 1
	note C_, 1
	note C_, 1
	note D_, 2
	note D_, 2
	note D_, 2
	note D_, 2
	note D_, 2
	note D_, 2
	note D_, 2
	note A#, 2
	note __, 2
	note A#, 2
	note C_, 2
	note A#, 2
	note C_, 2
	note A#, 2
	note C_, 4
	note D_, 2
	note D_, 2
	note D_, 2
	note D_, 2
	note D_, 2
	note D_, 2
	note D_, 2
	note A#, 2
	note __, 2
	note A#, 2
	note B_, 4
	note B_, 8
	loopchannel 0, Music_SplatoonTheme_Ch4_loop

